# xmcd
#
# Track frame offsets:
#	150
#	14842
#	32334
#	67039
#	88594
#	102690
#	118400
#	140496
#	154700
#	165466
#	183403
#	197873
#	218555
#	242550
#
# Disc length: 3640 seconds
#
# Revision: 0
# Processed by: cddbd v1.5.1PL2 Copyright (c) Steve Scherf et al.
# Submitted via: dBpowerAMP V4.0
#
DISCID=c70e360e
DTITLE=Hippies In Trance - 20 Jahre H.I.T. in der Batschkapp Frankfurt
DYEAR=1999
DGENRE=R&B
TTITLE0=Dust My Broom
TTITLE1=Linda Lou
TTITLE2=Rock Me
TTITLE3=Let It Bleed
TTITLE4=Loved
TTITLE5=Pride and Joy
TTITLE6=Cadillac Walk
TTITLE7=I'm Ready
TTITLE8=Real Wild One
TTITLE9=Rainy Day Women
TTITLE10=No Particular Place To Go
TTITLE11=Cars Hiss By My Window
TTITLE12=Hoochie Coochie Man
TTITLE13=Down So Long
EXTD=This Is H.I.T., pretty Baby!
EXTT0=
EXTT1=
EXTT2=
EXTT3=
EXTT4=
EXTT5=
EXTT6=
EXTT7=
EXTT8=
EXTT9=
EXTT10=
EXTT11=
EXTT12=
EXTT13=
PLAYORDER=
